<svg xmlns="http://www.w3.org/2000/svg" xmlns:xlink="http://www.w3.org/1999/xlink"><defs>
<filter id="filter0_b_34_2857" x="-16" y="-16" width="132" height="132" filterUnits="userSpaceOnUse" color-interpolation-filters="sRGB">
<feFlood flood-opacity="0" result="BackgroundImageFix"/>
<feGaussianBlur in="BackgroundImageFix" stdDeviation="8"/>
<feComposite in2="SourceAlpha" operator="in" result="effect1_backgroundBlur_34_2857"/>
<feBlend mode="normal" in="SourceGraphic" in2="effect1_backgroundBlur_34_2857" result="shape"/>
</filter>

<clipPath id="clip0_9_155">
<rect width="2682" height="721" fill="white" transform="translate(-1585)"/>
</clipPath>
</defs><symbol id="calling" viewBox="0 0 20 20"><g fill="none">
<path fill-rule="evenodd" clip-rule="evenodd" d="M5.5479 1.66647C6.47874 1.67897 7.14207 2.37647 7.98124 3.25897C8.18874 3.47647 8.4129 3.71397 8.66374 3.96397C9.87957 5.18063 9.53374 6.17313 9.25457 6.9698C8.95124 7.83897 8.68874 8.58897 10.2604 10.1606C11.8321 11.7323 12.5812 11.4698 13.4496 11.164C14.2471 10.8856 15.2371 10.5373 16.4554 11.754C16.7029 12.0015 16.9362 12.2231 17.1529 12.429C18.0387 13.2723 18.7387 13.9381 18.7505 14.8715C18.7596 15.6665 18.2762 16.4781 17.0829 17.6715L16.5546 17.3131L17.0021 17.749C16.7379 18.0198 16.0354 18.7415 14.6596 18.7498H14.6346C12.5579 18.7498 9.8504 17.0965 6.58707 13.834C3.3104 10.5581 1.65457 7.8423 1.667 5.76147C1.67457 4.38647 2.3954 3.6823 2.66624 3.41813L2.68935 3.39289L2.7454 3.33647C3.94124 2.14063 4.7629 1.64897 5.5479 1.66647ZM5.53207 2.91647H5.5254C5.15119 2.91647 4.58288 3.29147 3.79026 4.06138L3.6311 4.21768L3.6329 4.2173C3.6329 4.2173 3.6193 4.2329 3.59612 4.25654L3.5404 4.3123C3.33874 4.50813 2.92124 4.91563 2.91703 5.76813C2.9104 6.96063 3.69457 9.1748 7.4704 12.9498C11.2279 16.7065 13.4387 17.4998 14.6346 17.4998H14.6521C15.5046 17.4948 15.9112 17.0773 16.1071 16.8765C16.1662 16.8156 16.2146 16.7698 16.2487 16.7423C17.0796 15.9065 17.5046 15.2856 17.5004 14.8865C17.4954 14.4798 16.9896 13.9998 16.2904 13.334C16.0679 13.1231 15.8262 12.8923 15.5712 12.6373C14.9096 11.9781 14.5837 12.0906 13.8629 12.344C12.8671 12.6931 11.5029 13.1715 9.37707 11.044C7.2504 8.91813 7.72707 7.55397 8.07457 6.5573C8.32624 5.8373 8.44124 5.5098 7.7804 4.84813C7.52207 4.5898 7.28957 4.3448 7.0754 4.1198C6.41374 3.4248 5.93624 2.9223 5.53207 2.91647ZM12.7055 4.63105C14.4397 4.96772 15.7788 6.30605 16.1163 8.04105C16.1822 8.38105 15.9613 8.70855 15.623 8.77438C15.5822 8.78188 15.5422 8.78605 15.5022 8.78605C15.2088 8.78605 14.948 8.57938 14.8897 8.28105C14.6497 7.04772 13.6988 6.09688 12.4672 5.85772C12.128 5.79188 11.9072 5.46438 11.973 5.12522C12.0388 4.78605 12.3722 4.56438 12.7055 4.63105ZM12.6556 1.67122C16.0539 2.04872 18.6931 4.68455 19.0739 8.08205C19.1122 8.42538 18.8656 8.73455 18.5231 8.77288C18.4997 8.77538 18.4756 8.77705 18.4522 8.77705C18.1381 8.77705 17.8681 8.54122 17.8322 8.22205C17.5164 5.40872 15.3314 3.22538 12.5172 2.91288C12.1747 2.87455 11.9272 2.56622 11.9656 2.22288C12.0031 1.88038 12.3089 1.62788 12.6556 1.67122Z" fill="#B0B0B2"/>
</g></symbol><symbol id="facebook" viewBox="0 0 11 21"><g fill="none">
<path d="M3.42748 20.1305V11.0069H0.357178V7.45117H3.42748V4.82896C3.42748 1.78591 5.28608 0.128906 8.00069 0.128906C9.30102 0.128906 10.4186 0.225719 10.7443 0.26899V3.44916L8.86154 3.45001C7.38518 3.45001 7.09932 4.15156 7.09932 5.18103V7.45117H10.6203L10.1619 11.0069H7.09932V20.1305H3.42748Z" fill="white"/>
</g></symbol><symbol id="instagram" viewBox="0 0 23 23"><g fill="none">
<path d="M11.8732 2.00535C14.8446 2.00535 15.1965 2.01647 16.3704 2.07C17.0761 2.07864 17.7752 2.20823 18.4372 2.45316C18.9172 2.63829 19.3532 2.9219 19.717 3.28571C20.0808 3.64953 20.3644 4.0855 20.5496 4.56555C20.7945 5.22752 20.9241 5.92659 20.9327 6.63237C20.9857 7.80622 20.9974 8.15811 20.9974 11.1296C20.9974 14.101 20.9863 14.4529 20.9327 15.6267C20.9241 16.3325 20.7945 17.0316 20.5496 17.6936C20.3644 18.1736 20.0808 18.6096 19.717 18.9734C19.3532 19.3372 18.9172 19.6208 18.4372 19.806C17.7752 20.0509 17.0761 20.1805 16.3704 20.1891C15.197 20.2421 14.8452 20.2538 11.8732 20.2538C8.90119 20.2538 8.5493 20.2426 7.37598 20.1891C6.67021 20.1805 5.97114 20.0509 5.30916 19.806C4.82911 19.6208 4.39314 19.3372 4.02932 18.9734C3.66551 18.6096 3.3819 18.1736 3.19677 17.6936C2.95184 17.0316 2.82225 16.3325 2.81361 15.6267C2.76062 14.4529 2.74896 14.101 2.74896 11.1296C2.74896 8.15811 2.76009 7.80622 2.81361 6.63237C2.82225 5.92659 2.95184 5.22752 3.19677 4.56555C3.3819 4.0855 3.66551 3.64953 4.02932 3.28571C4.39314 2.9219 4.82911 2.63829 5.30916 2.45316C5.97114 2.20823 6.67021 2.07864 7.37598 2.07C8.54983 2.017 8.90172 2.00535 11.8732 2.00535ZM11.8732 0C8.85243 0 8.47193 0.0127189 7.28483 0.0667741C6.36115 0.0851465 5.44727 0.260038 4.58207 0.584009C3.83986 0.863648 3.16762 1.30187 2.61223 1.86809C2.0455 2.42368 1.6069 3.09631 1.32709 3.83899C1.00312 4.70419 0.828227 5.61807 0.809855 6.54175C0.75686 7.72779 0.744141 8.10829 0.744141 11.129C0.744141 14.1498 0.756859 14.5303 0.810915 15.7174C0.829287 16.6411 1.00418 17.5549 1.32815 18.4201C1.60765 19.1627 2.04588 19.8353 2.61223 20.391C3.16792 20.9574 3.84054 21.3956 4.58313 21.6751C5.44833 21.9991 6.36221 22.174 7.28589 22.1923C8.47299 22.2453 8.8519 22.2591 11.8742 22.2591C14.8966 22.2591 15.2755 22.2464 16.4626 22.1923C17.3863 22.174 18.3001 21.9991 19.1653 21.6751C19.9044 21.3886 20.5755 20.9511 21.1358 20.3904C21.6961 19.8297 22.1333 19.1583 22.4193 18.4191C22.7432 17.5539 22.9181 16.64 22.9365 15.7163C22.9895 14.5303 23.0022 14.1498 23.0022 11.129C23.0022 8.10829 22.9895 7.72779 22.9354 6.54069C22.9171 5.61701 22.7422 4.70313 22.4182 3.83792C22.1387 3.09534 21.7005 2.42272 21.1341 1.86703C20.5784 1.30068 19.9058 0.862451 19.1632 0.582949C18.298 0.258978 17.3841 0.0840867 16.4605 0.0657143C15.2744 0.0127189 14.8939 0 11.8732 0Z" fill="white"/>
<path d="M11.8771 5.41406C10.7468 5.41406 9.64187 5.74924 8.70204 6.37722C7.76221 7.00519 7.0297 7.89776 6.59714 8.94204C6.16459 9.98632 6.05141 11.1354 6.27192 12.244C6.49244 13.3526 7.03674 14.371 7.836 15.1702C8.63526 15.9695 9.65358 16.5138 10.7622 16.7343C11.8708 16.9548 13.0199 16.8416 14.0642 16.4091C15.1085 15.9765 16.001 15.244 16.629 14.3042C17.257 13.3643 17.5922 12.2594 17.5922 11.1291C17.5922 9.61337 16.99 8.15973 15.9183 7.08795C14.8465 6.01618 13.3929 5.41406 11.8771 5.41406ZM11.8771 14.8388C11.1434 14.8388 10.4262 14.6212 9.81615 14.2136C9.20609 13.8059 8.73062 13.2266 8.44984 12.5487C8.16906 11.8709 8.0956 11.125 8.23874 10.4054C8.38188 9.68576 8.73519 9.02475 9.254 8.50595C9.7728 7.98714 10.4338 7.63383 11.1534 7.49069C11.873 7.34755 12.6189 7.42101 13.2968 7.70179C13.9746 7.98257 14.554 8.45805 14.9616 9.0681C15.3692 9.67815 15.5868 10.3954 15.5868 11.1291C15.5868 12.113 15.196 13.0565 14.5003 13.7522C13.8046 14.4479 12.861 14.8388 11.8771 14.8388Z" fill="white"/>
<path d="M17.814 6.52351C18.5516 6.52351 19.1495 5.92559 19.1495 5.18802C19.1495 4.45046 18.5516 3.85254 17.814 3.85254C17.0764 3.85254 16.4785 4.45046 16.4785 5.18802C16.4785 5.92559 17.0764 6.52351 17.814 6.52351Z" fill="white"/>
</g></symbol><symbol id="letter" viewBox="0 0 24 24"><g fill="none">
<path fill-rule="evenodd" clip-rule="evenodd" d="M16.6589 2C19.9889 2 22.4999 4.717 22.4999 8.32V15.188C22.4999 17.032 21.8479 18.698 20.6629 19.88C19.5999 20.939 18.2209 21.5 16.6749 21.5H6.82188C5.27888 21.5 3.90088 20.94 2.83688 19.88C1.65188 18.698 0.999878 17.032 0.999878 15.188V8.32C0.999878 4.717 3.51088 2 6.84088 2H16.6589ZM16.6589 3.5H6.84088C4.32588 3.5 2.49988 5.527 2.49988 8.32V15.188C2.49988 16.631 2.99588 17.92 3.89588 18.817C4.67188 19.592 5.68488 20 6.82488 20H16.6589C16.6609 19.998 16.6689 20 16.6749 20C17.8159 20 18.8279 19.592 19.6039 18.817C20.5049 17.92 20.9999 16.631 20.9999 15.188V8.32C20.9999 5.527 19.1739 3.5 16.6589 3.5ZM18.2349 8.1288C18.4959 8.4498 18.4469 8.9218 18.1259 9.1838L13.6819 12.7958C13.1199 13.2418 12.4479 13.4648 11.7769 13.4648C11.1079 13.4648 10.4409 13.2438 9.88288 12.8018L5.39788 9.1858C5.07488 8.9258 5.02488 8.4528 5.28388 8.1308C5.54488 7.8098 6.01688 7.7588 6.33888 8.0178L10.8199 11.6298C11.3829 12.0758 12.1759 12.0758 12.7429 11.6258L17.1789 8.0198C17.5009 7.7568 17.9729 7.8068 18.2349 8.1288Z" fill="white"/>
</g></symbol><symbol id="location" viewBox="0 0 20 20"><g fill="none">
<path fill-rule="evenodd" clip-rule="evenodd" d="M10.2079 1.66602C13.9988 1.66602 17.0829 4.77352 17.0829 8.59352C17.0829 13.2893 11.7029 17.916 10.2079 17.916C8.71295 17.916 3.33295 13.2893 3.33295 8.59352C3.33295 4.77352 6.41711 1.66602 10.2079 1.66602ZM10.2079 2.91602C7.10628 2.91602 4.58295 5.46352 4.58295 8.59352C4.58295 12.576 9.26961 16.456 10.2079 16.6627C11.1463 16.4552 15.8329 12.5752 15.8329 8.59352C15.8329 5.46352 13.3096 2.91602 10.2079 2.91602ZM10.2088 5.83268C11.7021 5.83268 12.9171 7.04768 12.9171 8.54185C12.9171 10.0352 11.7021 11.2493 10.2088 11.2493C8.71545 11.2493 7.50045 10.0352 7.50045 8.54185C7.50045 7.04768 8.71545 5.83268 10.2088 5.83268ZM10.2088 7.08268C9.40461 7.08268 8.75045 7.73685 8.75045 8.54185C8.75045 9.34602 9.40461 9.99935 10.2088 9.99935C11.0129 9.99935 11.6671 9.34602 11.6671 8.54185C11.6671 7.73685 11.0129 7.08268 10.2088 7.08268Z" fill="#B0B0B2"/>
</g></symbol><symbol id="mask-group" viewBox="0 0 707 556"><g fill="none">
<circle cx="353.373" cy="329.528" r="226.472" fill="#333751"/>
<circle cx="353.373" cy="329.528" r="225.89" stroke="white" stroke-opacity="0.17" stroke-width="1.16352"/>
<rect width="707" height="391" fill="#D9D9D9"/>
</g></symbol><symbol id="menu-toggle-closed" viewBox="0 0 16 16"><g fill="none">
<path d="M2.66667 4H13.3333V5.33333H2.66667V4ZM5.33333 7.33333H13.3333V8.66667H5.33333V7.33333ZM8.66667 10.6667H13.3333V12H8.66667V10.6667Z" fill="white"/>
</g></symbol><symbol id="message" viewBox="0 0 20 20"><g fill="none">
<path fill-rule="evenodd" clip-rule="evenodd" d="M13.8824 1.66602C16.6574 1.66602 18.7499 3.93018 18.7499 6.93268V12.656C18.7499 14.1927 18.2066 15.581 17.2191 16.566C16.3333 17.4485 15.1841 17.916 13.8958 17.916H5.68492C4.39909 17.916 3.25075 17.4493 2.36409 16.566C1.37659 15.581 0.833252 14.1927 0.833252 12.656V6.93268C0.833252 3.93018 2.92575 1.66602 5.70075 1.66602H13.8824ZM13.8824 2.91602H5.70075C3.60492 2.91602 2.08325 4.60518 2.08325 6.93268V12.656C2.08325 13.8585 2.49659 14.9327 3.24659 15.6802C3.89325 16.326 4.73742 16.666 5.68742 16.666H13.8824C13.8841 16.6643 13.8908 16.666 13.8958 16.666C14.8466 16.666 15.6899 16.326 16.3366 15.6802C17.0874 14.9327 17.4999 13.8585 17.4999 12.656V6.93268C17.4999 4.60518 15.9783 2.91602 13.8824 2.91602ZM15.1958 6.77335C15.4133 7.04085 15.3724 7.43418 15.1049 7.65252L11.4016 10.6625C10.9333 11.0342 10.3733 11.22 9.81409 11.22C9.25659 11.22 8.70075 11.0358 8.23575 10.6675L4.49825 7.65418C4.22909 7.43752 4.18742 7.04335 4.40325 6.77502C4.62075 6.50752 5.01409 6.46502 5.28242 6.68085L9.01658 9.69085C9.48575 10.0625 10.1466 10.0625 10.6191 9.68752L14.3158 6.68252C14.5841 6.46335 14.9774 6.50502 15.1958 6.77335Z" fill="#B0B0B2"/>
</g></symbol><symbol id="plane" viewBox="0 0 17 17"><g fill="none">
<path d="M14.4569 2.38799C14.1234 2.04573 13.6299 1.91822 13.1697 2.05244L2.43867 5.17302C1.95313 5.3079 1.60899 5.69512 1.51629 6.18703C1.42158 6.68767 1.75239 7.32319 2.18456 7.58894L5.53994 9.65121C5.88408 9.8626 6.32826 9.80958 6.61304 9.52236L10.4553 5.6562C10.6487 5.45487 10.9688 5.45487 11.1622 5.6562C11.3556 5.85082 11.3556 6.16623 11.1622 6.36756L7.31333 10.2344C7.02788 10.5209 6.97452 10.9672 7.18461 11.3135L9.23478 14.7025C9.47488 15.1052 9.88838 15.3333 10.3419 15.3333C10.3953 15.3333 10.4553 15.3333 10.5086 15.3266C11.0288 15.2595 11.4424 14.9038 11.5957 14.4005L14.7771 3.68319C14.9171 3.22685 14.7904 2.73024 14.4569 2.38799Z" fill="white"/>
</g></symbol><symbol id="play-btn" viewBox="0 0 100 100"><g fill="none">
<g filter="url(#filter0_b_34_2857)">
<path fill-rule="evenodd" clip-rule="evenodd" d="M50 100C77.6142 100 100 77.6142 100 50C100 22.3858 77.6142 0 50 0C22.3858 0 0 22.3858 0 50C0 77.6142 22.3858 100 50 100ZM42.1875 68.3402L70.3125 52.62C72.3958 51.4556 72.3958 48.5444 70.3125 47.38L42.1875 31.6598C40.1042 30.4954 37.5 31.9509 37.5 34.2799V65.7201C37.5 68.049 40.1042 69.5046 42.1875 68.3402Z" fill="white"/>
</g>

</g></symbol><symbol id="sharp-about-us" viewBox="0 0 990 721"><g fill="none">
<path opacity="0.2" d="M-195.193 0L1301.61 728.783" stroke="white" stroke-opacity="0.4"/>
<path opacity="0.2" d="M-283.241 42.8691L1213.57 771.652" stroke="white" stroke-opacity="0.4"/>
<path opacity="0.2" d="M-371.289 85.7393L1125.52 814.522" stroke="white" stroke-opacity="0.4"/>
<path opacity="0.2" d="M-459.336 128.608L1037.47 857.391" stroke="white" stroke-opacity="0.4"/>
<path opacity="0.2" d="M-547.383 171.479L949.424 900.261" stroke="white" stroke-opacity="0.4"/>
<path opacity="0.2" d="M-635.43 214.348L861.377 943.13" stroke="white" stroke-opacity="0.4"/>
<path opacity="0.2" d="M-723.477 257.218L773.33 986.001" stroke="white" stroke-opacity="0.4"/>
<path opacity="0.2" d="M-811.526 300.087L685.281 1028.87" stroke="white" stroke-opacity="0.4"/>
<path opacity="0.2" d="M-899.574 342.957L597.234 1071.74" stroke="white" stroke-opacity="0.4"/>
<path opacity="0.2" d="M-987.62 385.826L509.187 1114.61" stroke="white" stroke-opacity="0.4"/>
<path opacity="0.2" d="M-1075.67 428.695L421.139 1157.48" stroke="white" stroke-opacity="0.4"/>
<path opacity="0.2" d="M-1163.71 471.565L333.093 1200.35" stroke="white" stroke-opacity="0.4"/>
<path opacity="0.2" d="M-1251.76 514.435L245.045 1243.22" stroke="white" stroke-opacity="0.4"/>
<path opacity="0.2" d="M-1339.81 557.305L156.996 1286.09" stroke="white" stroke-opacity="0.4"/>
<path opacity="0.2" d="M-1427.86 600.174L68.949 1328.96" stroke="white" stroke-opacity="0.4"/>
<path opacity="0.2" d="M68.9495 128.608L-1427.86 857.391" stroke="white" stroke-opacity="0.4"/>
<path opacity="0.2" d="M156.997 171.479L-1339.81 900.261" stroke="white" stroke-opacity="0.4"/>
<path opacity="0.2" d="M245.045 214.348L-1251.76 943.13" stroke="white" stroke-opacity="0.4"/>
<path opacity="0.2" d="M333.092 257.218L-1163.72 986.001" stroke="white" stroke-opacity="0.4"/>
<path opacity="0.2" d="M421.139 300.087L-1075.67 1028.87" stroke="white" stroke-opacity="0.4"/>
<path opacity="0.2" d="M509.187 342.957L-987.621 1071.74" stroke="white" stroke-opacity="0.4"/>
<path opacity="0.2" d="M597.217 385.826L-899.59 1114.61" stroke="white" stroke-opacity="0.4"/>
<path opacity="0.2" d="M685.265 428.695L-811.543 1157.48" stroke="white" stroke-opacity="0.4"/>
<path opacity="0.2" d="M773.312 471.565L-723.496 1200.35" stroke="white" stroke-opacity="0.4"/>
<path opacity="0.2" d="M861.359 514.435L-635.448 1243.22" stroke="white" stroke-opacity="0.4"/>
<path opacity="0.2" d="M949.407 557.305L-547.401 1286.09" stroke="white" stroke-opacity="0.4"/>
<path opacity="0.2" d="M1037.45 600.174L-459.353 1328.96" stroke="white" stroke-opacity="0.4"/>
<path opacity="0.2" d="M1125.5 643.044L-371.306 1371.83" stroke="white" stroke-opacity="0.4"/>
</g></symbol><symbol id="sharp" viewBox="0 0 1097 721"><g fill="none">
<g clip-path="url(#clip0_9_155)">
<path opacity="0.2" d="M-88.1929 0L1408.61 728.783" stroke="white" stroke-opacity="0.4"/>
<path opacity="0.2" d="M-176.241 42.8691L1320.57 771.652" stroke="white" stroke-opacity="0.4"/>
<path opacity="0.2" d="M-264.289 85.7393L1232.52 814.522" stroke="white" stroke-opacity="0.4"/>
<path opacity="0.2" d="M-352.336 128.608L1144.47 857.391" stroke="white" stroke-opacity="0.4"/>
<path opacity="0.2" d="M-440.383 171.479L1056.42 900.261" stroke="white" stroke-opacity="0.4"/>
<path opacity="0.2" d="M-528.43 214.348L968.377 943.13" stroke="white" stroke-opacity="0.4"/>
<path opacity="0.2" d="M-616.478 257.218L880.33 986.001" stroke="white" stroke-opacity="0.4"/>
<path opacity="0.2" d="M-704.526 300.087L792.281 1028.87" stroke="white" stroke-opacity="0.4"/>
<path opacity="0.2" d="M-792.574 342.957L704.234 1071.74" stroke="white" stroke-opacity="0.4"/>
<path opacity="0.2" d="M-880.62 385.826L616.187 1114.61" stroke="white" stroke-opacity="0.4"/>
<path opacity="0.2" d="M-968.668 428.695L528.139 1157.48" stroke="white" stroke-opacity="0.4"/>
<path opacity="0.2" d="M-1056.71 471.565L440.093 1200.35" stroke="white" stroke-opacity="0.4"/>
<path opacity="0.2" d="M-1144.76 514.435L352.045 1243.22" stroke="white" stroke-opacity="0.4"/>
<path opacity="0.2" d="M-1232.81 557.305L263.996 1286.09" stroke="white" stroke-opacity="0.4"/>
<path opacity="0.2" d="M-1320.86 600.174L175.949 1328.96" stroke="white" stroke-opacity="0.4"/>
<path opacity="0.2" d="M-1408.91 643.044L87.9019 1371.83" stroke="white" stroke-opacity="0.4"/>
<path opacity="0.2" d="M-1496.95 685.913L-0.145237 1414.7" stroke="white" stroke-opacity="0.4"/>
<path opacity="0.2" d="M87.9022 85.7393L-1408.91 814.522" stroke="white" stroke-opacity="0.4"/>
<path opacity="0.2" d="M175.949 128.608L-1320.86 857.391" stroke="white" stroke-opacity="0.4"/>
<path opacity="0.2" d="M263.997 171.479L-1232.81 900.261" stroke="white" stroke-opacity="0.4"/>
<path opacity="0.2" d="M352.045 214.348L-1144.76 943.13" stroke="white" stroke-opacity="0.4"/>
<path opacity="0.2" d="M440.092 257.218L-1056.72 986.001" stroke="white" stroke-opacity="0.4"/>
<path opacity="0.2" d="M528.139 300.087L-968.668 1028.87" stroke="white" stroke-opacity="0.4"/>
<path opacity="0.2" d="M616.187 342.957L-880.621 1071.74" stroke="white" stroke-opacity="0.4"/>
<path opacity="0.2" d="M704.217 385.826L-792.59 1114.61" stroke="white" stroke-opacity="0.4"/>
<path opacity="0.2" d="M792.265 428.695L-704.543 1157.48" stroke="white" stroke-opacity="0.4"/>
<path opacity="0.2" d="M880.312 471.565L-616.496 1200.35" stroke="white" stroke-opacity="0.4"/>
<path opacity="0.2" d="M968.359 514.435L-528.448 1243.22" stroke="white" stroke-opacity="0.4"/>
<path opacity="0.2" d="M1056.41 557.305L-440.401 1286.09" stroke="white" stroke-opacity="0.4"/>
<path opacity="0.2" d="M1144.45 600.174L-352.353 1328.96" stroke="white" stroke-opacity="0.4"/>
<path opacity="0.2" d="M1232.5 643.044L-264.306 1371.83" stroke="white" stroke-opacity="0.4"/>
</g>

</g></symbol><symbol id="twitter" viewBox="0 0 19 16"><g fill="none">
<path d="M18.3572 2.43095C17.6688 2.7369 16.9421 2.92812 16.1772 3.04285C16.9421 2.58392 17.554 1.85728 17.8217 0.97767C17.0951 1.39835 16.292 1.70431 15.4124 1.89553C14.724 1.16889 13.7296 0.709961 12.6588 0.709961C10.5936 0.709961 8.91087 2.3927 8.91087 4.45788C8.91087 4.76383 8.94912 5.03154 9.0256 5.29925C5.92783 5.14628 3.13601 3.65476 1.26205 1.36011C0.956102 1.93377 0.764882 2.54568 0.764882 3.23407C0.764882 4.53437 1.41503 5.68169 2.44762 6.37009C1.83572 6.33184 1.26205 6.17887 0.726638 5.91116V5.9494C0.726638 7.78512 2.02694 9.31488 3.74792 9.65908C3.44197 9.73557 3.09777 9.77381 2.75357 9.77381C2.52411 9.77381 2.2564 9.73557 2.02694 9.69732C2.52411 11.1888 3.9009 12.2979 5.54539 12.2979C4.24509 13.2923 2.63884 13.9042 0.879614 13.9042C0.573661 13.9042 0.267709 13.9042 0 13.8659C1.68274 14.9368 3.63319 15.5487 5.77486 15.5487C12.697 15.5487 16.4832 9.81205 16.4832 4.84032C16.4832 4.68735 16.4832 4.49613 16.4832 4.34315C17.2098 3.84598 17.86 3.19583 18.3572 2.43095Z" fill="white"/>
</g></symbol></svg>